<svg xmlns="http://www.w3.org/2000/svg" xmlns:xlink="http://www.w3.org/1999/xlink" width="100.0" height="100.0" viewBox="4547.556571596603 5157.813128745867 56.6674310302742 48.436756953224176" preserveAspectRatio="xMinYMin meet"><g transform="matrix(1,0,0,-1,0,10364.063014444959)"><path fill-rule="evenodd" fill="#66cc99" stroke="#555555" stroke-width="1.1333486206054841" opacity="0.6" d="M 4573.318236986318,5203.1222750674815 L 4574.347056419195,5202.093455091281 L 4575.375878938533,5201.064638201533 L 4576.40469837141,5201.064638201533 L 4577.433517804286,5200.035821311785 L 4578.462340323624,5201.064638201533 L 4579.491159756501,5202.093455091281 L 4580.5199791893765,5202.093455091281 L 4581.548801708715,5203.1222750674815 L 4582.577621141591,5203.1222750674815 L 4583.606440574468,5203.1222750674815 L 4584.635263093806,5203.1222750674815 L 4584.635263093806,5202.093455091281 L 4584.635263093806,5201.064638201533 L 4584.635263093806,5200.035821311785 L 4585.664082526683,5199.007001335584 L 4585.664082526683,5197.978184445837 L 4585.664082526683,5196.949367556089 L 4586.692901959559,5195.920547579887 L 4587.721724478897,5194.891730690139 L 4588.750543911774,5194.891730690139 L 4588.750543911774,5193.862913800392 L 4589.77936334465,5192.834093824191 L 4589.77936334465,5191.805276934443 L 4589.77936334465,5190.776460044695 L 4590.808185863988,5189.747640068495 L 4591.837005296865,5189.747640068495 L 4592.865824729742,5188.718823178747 L 4593.89464724908,5187.690006288999 L 4594.923466681957,5186.661186312797 L 4595.9522861148325,5185.63236942305 L 4596.981108634171,5184.603552533302 L 4598.009928067047,5184.603552533302 L 4599.038747499923,5184.603552533302 L 4600.067570019261,5184.603552533302 L 4601.096389452138,5184.603552533302 L 4602.125208885015,5183.574732557101 L 4602.125208885015,5182.545915667353 L 4602.125208885015,5181.5170987776055 L 4601.096389452138,5181.5170987776055 L 4600.067570019261,5181.5170987776055 L 4599.038747499923,5181.5170987776055 L 4598.009928067047,5181.5170987776055 L 4596.981108634171,5180.488278801405 L 4596.981108634171,5179.459461911657 L 4596.981108634171,5178.430645021909 L 4596.981108634171,5177.4018250457075 L 4595.9522861148325,5176.37300815596 L 4594.923466681957,5176.37300815596 L 4593.89464724908,5176.37300815596 L 4592.865824729742,5175.344191266212 L 4592.865824729742,5174.315371290011 L 4592.865824729742,5173.286554400263 L 4591.837005296865,5172.257737510516 L 4591.837005296865,5171.228917534315 L 4590.808185863988,5170.200100644567 L 4589.77936334465,5170.200100644567 L 4588.750543911774,5169.171283754819 L 4587.721724478897,5168.142463778618 L 4586.692901959559,5167.11364688887 L 4585.664082526683,5166.084829999122 L 4584.635263093806,5166.084829999122 L 4583.606440574468,5166.084829999122 L 4582.577621141591,5166.084829999122 L 4581.548801708715,5166.084829999122 L 4580.5199791893765,5166.084829999122 L 4579.491159756501,5166.084829999122 L 4578.462340323624,5165.056010022921 L 4577.433517804286,5164.027193133174 L 4577.433517804286,5162.998376243426 L 4577.433517804286,5161.969556267225 L 4577.433517804286,5160.940739377477 L 4577.433517804286,5159.9119224877295 L 4576.40469837141,5159.9119224877295 L 4575.375878938533,5159.9119224877295 L 4574.347056419195,5159.9119224877295 L 4573.318236986318,5159.9119224877295 L 4572.289417553441,5159.9119224877295 L 4571.260595034103,5159.9119224877295 L 4570.231775601227,5159.9119224877295 L 4569.20295616835,5159.9119224877295 L 4568.174133649012,5159.9119224877295 L 4567.145314216136,5159.9119224877295 L 4566.116494783259,5159.9119224877295 L 4565.087672263921,5159.9119224877295 L 4564.0588528310445,5159.9119224877295 L 4563.030033398168,5159.9119224877295 L 4562.00121087883,5159.9119224877295 L 4560.972391445954,5159.9119224877295 L 4559.943572013077,5159.9119224877295 L 4558.914749493739,5159.9119224877295 L 4557.885930060863,5159.9119224877295 L 4556.857110627986,5159.9119224877295 L 4555.828288108648,5159.9119224877295 L 4554.799468675771,5159.9119224877295 L 4554.799468675771,5160.940739377477 L 4554.799468675771,5161.969556267225 L 4554.799468675771,5162.998376243426 L 4554.799468675771,5164.027193133174 L 4554.799468675771,5165.056010022921 L 4553.770649242894,5166.084829999122 L 4553.770649242894,5167.11364688887 L 4553.770649242894,5168.142463778618 L 4553.770649242894,5169.171283754819 L 4553.770649242894,5170.200100644567 L 4553.770649242894,5171.228917534315 L 4553.770649242894,5172.257737510516 L 4554.799468675771,5173.286554400263 L 4554.799468675771,5174.315371290011 L 4554.799468675771,5175.344191266212 L 4554.799468675771,5176.37300815596 L 4553.770649242894,5177.4018250457075 L 4553.770649242894,5178.430645021909 L 4552.741826723556,5179.459461911657 L 4551.71300729068,5179.459461911657 L 4550.684187857803,5179.459461911657 L 4549.655365338465,5179.459461911657 L 4549.655365338465,5180.488278801405 L 4549.655365338465,5181.5170987776055 L 4549.655365338465,5182.545915667353 L 4549.655365338465,5183.574732557101 L 4549.655365338465,5184.603552533302 L 4549.655365338465,5185.63236942305 L 4549.655365338465,5186.661186312797 L 4549.655365338465,5187.690006288999 L 4549.655365338465,5188.718823178747 L 4549.655365338465,5189.747640068495 L 4549.655365338465,5190.776460044695 L 4549.655365338465,5191.805276934443 L 4549.655365338465,5192.834093824191 L 4549.655365338465,5193.862913800392 L 4549.655365338465,5194.891730690139 L 4549.655365338465,5195.920547579887 L 4549.655365338465,5196.949367556089 L 4549.655365338465,5197.978184445837 L 4549.655365338465,5199.007001335584 L 4549.655365338465,5200.035821311785 L 4549.655365338465,5201.064638201533 L 4549.655365338465,5202.093455091281 L 4550.684187857803,5202.093455091281 L 4551.71300729068,5202.093455091281 L 4552.741826723556,5202.093455091281 L 4553.770649242894,5201.064638201533 L 4554.799468675771,5201.064638201533 L 4555.828288108648,5201.064638201533 L 4556.857110627986,5201.064638201533 L 4557.885930060863,5200.035821311785 L 4558.914749493739,5200.035821311785 L 4559.943572013077,5200.035821311785 L 4560.972391445954,5200.035821311785 L 4562.00121087883,5201.064638201533 L 4563.030033398168,5201.064638201533 L 4564.0588528310445,5202.093455091281 L 4565.087672263921,5202.093455091281 L 4566.116494783259,5202.093455091281 L 4567.145314216136,5202.093455091281 L 4568.174133649012,5203.1222750674815 L 4569.20295616835,5203.1222750674815 L 4570.231775601227,5204.151091957229 L 4571.260595034103,5204.151091957229 L 4572.289417553441,5204.151091957229 L 4573.318236986318,5203.1222750674815 z" /></g></svg>